# xmcd
#
# Track frame offsets: 
#        150
#        32902
#        57773
#        86637
#        114662
#        146125
#
# Disc length: 2282 seconds
#
# Revision: 0
# Processed by: cddbd v1.5.2PL0 Copyright (c) Steve Scherf et al.
# Submitted via: ExactAudioCopy v0.99pb4
#
DISCID=5108e806
DTITLE=N.C.C.U. - Super Trick
DYEAR=1977
DGENRE=R&B
TTITLE0=Super Trick
TTITLE1=Hey Girl
TTITLE2=Bull City Party
TTITLE3=You And I
TTITLE4=Washing Machine
TTITLE5=Sleepy Time Is Over
EXTD=
EXTT0=
EXTT1=
EXTT2=
EXTT3=
EXTT4=
EXTT5=
PLAYORDER=
